# xmcd CD database file
#
# Track frame offsets:
#	150
#	19083
#	57103
#	85263
#	107662
#	139319
#	149308
#	181802
#	207092
#	245521
#
# Disc length: 3721 seconds
#
# Revision: 0
# Processed by: cddbd v1.5.2PL0 Copyright (c) Steve Scherf et al.
# Submitted via: CDex 1.70beta3
#
DISCID=860e870a
DTITLE=Kei Akagi Trio - Contrast and Form
DYEAR=2016
DGENRE=Jazz
TTITLE0=In the Fold
TTITLE1=Playground - The Dog and the Snake
TTITLE2=Ame to Kaeru (The Rain and the Frog)
TTITLE3=Limbo
TTITLE4=Simply Five
TTITLE5=Contrast and Form Pt. I
TTITLE6=Contrast and Form Pt. II
TTITLE7=Contrast and Form Pt. III
TTITLE8=Count Nine
TTITLE9=Where You May Be
EXTD=YEAR: 2016
EXTT0=
EXTT1=
EXTT2=
EXTT3=
EXTT4=
EXTT5=
EXTT6=
EXTT7=
EXTT8=
EXTT9=
PLAYORDER=
